{
	"asset":{
		"generator":"Khronos glTF Blender I/O v3.5.30",
		"version":"2.0"
	},
	"scene":0,
	"scenes":[
		{
			"name":"Scene",
			"nodes":[
				0
			]
		}
	],
	"nodes":[
		{
			"mesh":0,
			"name":"Cube"
		}
	],
	"materials":[
		{
			"doubleSided":true,
			"name":"Material",
			"pbrMetallicRoughness":{
				"baseColorTexture":{
					"index":0
				},
				"metallicFactor":0,
				"roughnessFactor":0.5
			}
		}
	],
	"meshes":[
		{
			"name":"Cube",
			"primitives":[
				{
					"attributes":{
						"POSITION":0,
						"TEXCOORD_0":1,
						"NORMAL":2
					},
					"indices":3,
					"material":0
				}
			]
		}
	],
	"textures":[
		{
			"sampler":0,
			"source":0
		}
	],
	"images":[
		{
			"bufferView":4,
			"mimeType":"image/png",
			"name":"ImphenziaPalette01"
		}
	],
	"accessors":[
		{
			"bufferView":0,
			"componentType":5126,
			"count":32603,
			"max":[
				8.998581886291504,
				2.892568588256836,
				8.874567985534668
			],
			"min":[
				-9.308613777160645,
				-0.6528244614601135,
				-9.43267822265625
			],
			"type":"VEC3"
		},
		{
			"bufferView":1,
			"componentType":5126,
			"count":32603,
			"type":"VEC2"
		},
		{
			"bufferView":2,
			"componentType":5126,
			"count":32603,
			"type":"VEC3"
		},
		{
			"bufferView":3,
			"componentType":5123,
			"count":39504,
			"type":"SCALAR"
		}
	],
	"bufferViews":[
		{
			"buffer":0,
			"byteLength":391236,
			"byteOffset":0,
			"target":34962
		},
		{
			"buffer":0,
			"byteLength":260824,
			"byteOffset":391236,
			"target":34962
		},
		{
			"buffer":0,
			"byteLength":391236,
			"byteOffset":652060,
			"target":34962
		},
		{
			"buffer":0,
			"byteLength":79008,
			"byteOffset":1043296,
			"target":34963
		},
		{
			"buffer":0,
			"byteLength":1126,
			"byteOffset":1122304
		}
	],
	"samplers":[
		{
			"magFilter":9728,
			"minFilter":9984
		}
	],
	"buffers":[
		{
			"byteLength":1123432,
			"uri":"data:application/octet-stream;base64,"
		}
	]
}
